<?xml version="1.0" encoding="UTF-8" standalone="no"?>
<svg width="332px" height="72px" viewBox="0 0 332 72" version="1.1" xmlns="http://www.w3.org/2000/svg" xmlns:xlink="http://www.w3.org/1999/xlink">
    <!-- Generator: Sketch 48.2 (47327) - http://www.bohemiancoding.com/sketch -->
    <title>Page 1</title>
    <desc>Created with Sketch.</desc>
    <defs>
        <polygon id="path-1" points="0.377671958 0.333717073 31.3643386 0.333717073 31.3643386 45.0731707 0.377671958 45.0731707"></polygon>
        <polygon id="path-3" points="0 71.4444878 331.958427 71.4444878 331.958427 0 0 0"></polygon>
    </defs>
    <g id="05" stroke="none" stroke-width="1" fill="none" fill-rule="evenodd" transform="translate(-195.000000, -106.000000)">
        <g id="Page-1" transform="translate(195.000000, 106.000000)">
            <path d="M110.688683,33.1225756 L103.745374,31.6164293 C99.8140727,30.7653073 97.7834272,28.2113561 97.7834272,24.8706732 C97.7834272,20.5489171 101.517402,17.1432585 106.757967,17.1432585 C113.24397,17.1432585 116.060408,21.7278439 116.584464,25.0673561 L122.349671,23.0373073 C121.300972,17.9949659 117.108521,11.5108683 106.626806,11.5108683 C98.0451626,11.5108683 91.2985947,18.0599415 91.2985947,25.3296 C91.2985947,32.2714537 96.0139316,36.5943805 102.631096,38.0349659 L109.247674,39.4755512 C113.898016,40.4577951 116.190983,43.3395512 116.190983,46.6790634 C116.190983,50.7403317 113.04723,54.0798439 106.626806,54.0798439 C99.6179175,54.0798439 95.9495224,49.2985756 95.4910462,44.1251122 L89.3323584,46.0896 C90.184316,52.7042341 95.4910462,59.9083317 106.692972,59.9083317 C116.584464,59.9083317 122.742566,53.3598439 122.742566,46.155161 C122.742566,39.6716488 118.418954,34.8254049 110.688683,33.1225756" id="Fill-1" fill="#FFFFFF"></path>
            <path d="M143.408483,26.5083512 C139.739503,26.5083512 136.005527,28.0150829 133.712561,31.9446439 L133.712561,27.4250341 L127.686205,27.4250341 L127.686205,58.9259122 L133.844307,58.9259122 L133.844307,40.7198634 C133.844307,35.9391805 136.334014,32.0745951 141.181097,32.0745951 C146.684568,32.0745951 148.518473,35.6107902 148.518473,39.999278 L148.518473,58.9259122 L154.675989,58.9259122 L154.675989,38.9514732 C154.675989,31.9446439 150.942014,26.5083512 143.408483,26.5083512" id="Fill-3" fill="#FFFFFF"></path>
            <g id="Group-7" transform="translate(194.398589, 26.371317)">
                <mask id="mask-2" fill="white">
                    <use xlink:href="#path-1"></use>
                </mask>
                <g id="Clip-6"></g>
                <path d="M15.7726349,27.9050341 C10.1385891,27.9050341 6.40461376,23.2554732 6.40461376,16.7713756 C6.40461376,10.4845463 10.1385891,5.76942439 15.7726349,5.76942439 C21.5378413,5.76942439 25.0750758,10.4845463 25.0750758,16.7713756 C25.0750758,23.2554732 21.472261,27.9050341 15.7726349,27.9050341 M16.8857425,0.333717073 C11.7763386,0.333717073 8.04236332,2.82210732 6.33961905,5.96552195 L6.33961905,1.05371707 L0.377671958,1.05371707 L0.377671958,45.0732293 L6.46960847,45.0732293 L6.46960847,28.2978146 C8.17293827,31.1140098 11.8419189,33.4057171 16.6895873,33.4057171 C25.926448,33.4057171 31.3643386,26.1366439 31.3643386,16.7713756 C31.3643386,7.60279024 26.3193439,0.333717073 16.8857425,0.333717073" id="Fill-5" fill="#FFFFFF" mask="url(#mask-2)"></path>
            </g>
            <path d="M253.109949,54.0142244 C244.659466,54.0142244 236.602464,47.7923707 236.602464,35.6770537 C236.602464,23.5617366 244.659466,17.4048585 253.109949,17.4048585 C260.709646,17.4048585 265.81905,21.3344195 267.588545,28.3418341 L273.549321,26.2462244 C271.19136,17.274322 263.722824,11.5108098 253.109949,11.5108098 C241.580708,11.5108098 230.05088,20.1554927 230.05088,35.6770537 C230.05088,51.1980293 241.121646,59.9082732 253.109949,59.9082732 C263.788404,59.9082732 271.12578,53.6870049 273.614902,44.976761 L267.915861,42.8811512 C266.01579,49.2335415 261.036962,54.0142244 253.109949,54.0142244" id="Fill-8" fill="#FFFFFF"></path>
            <mask id="mask-4" fill="white">
                <use xlink:href="#path-3"></use>
            </mask>
            <g id="Clip-11"></g>
            <polygon id="Fill-10" fill="#FFFFFF" mask="url(#mask-4)" points="311.512614 58.9258537 317.670716 58.9258537 317.670716 11.5106341 311.512614 11.5106341"></polygon>
            <polygon id="Fill-12" fill="#FFFFFF" mask="url(#mask-4)" points="325.80091 58.9258537 331.959012 58.9258537 331.959012 11.5106341 325.80091 11.5106341"></polygon>
            <path d="M181.407845,45.4318244 C181.407845,52.3122146 177.34831,54.7321171 172.293947,54.7321171 C169.154878,54.7321171 167.188642,52.5141659 167.188642,50.1446049 C167.188642,47.3348488 169.154878,45.8222634 171.777503,45.4318244 L181.407845,43.9947512 L181.407845,45.4318244 Z M174.462194,26.4402146 C167.642434,26.4402146 162.209228,30.6372878 161.554011,36.6607024 L167.453305,38.0339707 C167.843859,34.367239 170.264473,31.6827512 174.58867,31.6827512 C179.37837,31.6827512 181.407845,34.2408 181.407845,37.3163122 C181.407845,38.4249951 180.878519,39.4078244 178.987817,39.6724098 L170.465898,40.9198244 C165.032691,41.7012878 160.898208,44.8394341 160.898208,50.4724098 C160.898208,55.450361 165.032691,59.9114341 171.449601,59.9114341 C177.084233,59.9114341 180.223302,56.8997268 181.596974,54.6688976 L181.596974,58.9286049 L187.559506,58.9286049 L187.559506,37.9713366 C187.559506,31.8091902 183.891111,26.4402146 174.462194,26.4402146 Z" id="Fill-13" fill="#FFFFFF" mask="url(#mask-4)"></path>
            <path d="M298.344451,45.4318244 C298.344451,52.3122146 294.284917,54.7321171 289.230554,54.7321171 C286.091485,54.7321171 284.125249,52.5141659 284.125249,50.1446049 C284.125249,47.3348488 286.091485,45.8222634 288.714109,45.4318244 L298.344451,43.9947512 L298.344451,45.4318244 Z M291.398801,26.4402146 C284.579041,26.4402146 279.145834,30.6372878 278.490617,36.6607024 L284.389912,38.0339707 C284.780466,34.367239 287.201079,31.6827512 291.524691,31.6827512 C296.314977,31.6827512 298.344451,34.2408 298.344451,37.3163122 C298.344451,38.4249951 297.815125,39.4078244 295.923838,39.6724098 L287.402504,40.9198244 C281.969298,41.7012878 277.834815,44.8394341 277.834815,50.4724098 C277.834815,55.450361 281.969298,59.9114341 288.385623,59.9114341 C294.020254,59.9114341 297.159908,56.8997268 298.53358,54.6688976 L298.53358,58.9286049 L304.496113,58.9286049 L304.496113,37.9713366 C304.496113,31.8091902 300.827718,26.4402146 291.398801,26.4402146 Z" id="Fill-14" fill="#FFFFFF" mask="url(#mask-4)"></path>
            <path d="M51.3486892,18.7427707 L46.8025728,23.2828683 C46.5080473,23.5773073 46.0817757,23.7482341 45.631497,23.7482341 C45.1818039,23.7482341 44.7549467,23.5773073 44.4604212,23.2828683 L42.4391443,21.2627707 C41.9666152,20.7897951 41.2914899,20.5187707 40.5853312,20.5187707 C39.879758,20.5187707 39.200534,20.7897951 38.7274194,21.2627707 L30.6481672,29.3396488 C29.6240614,30.364039 29.6240614,32.0305756 30.6481672,33.0543805 L32.6694441,35.0709659 C32.9791937,35.384722 33.1542695,35.8003317 33.1542695,36.2416976 C33.1542695,36.6877463 32.9791937,37.1021854 32.6694441,37.4130146 L28.1233277,41.9572098 C27.8323153,42.2522341 27.4054582,42.4190634 26.9522519,42.4190634 C26.5019732,42.4190634 26.0757016,42.2522341 25.7805905,41.9572098 C25.749557,41.9261854 24.0274899,40.3404293 23.0150949,39.2815024 C20.5751584,36.7456976 20.1998286,33.6444293 21.8633418,29.8015024 C23.1040966,26.932039 25.5399344,23.7055024 29.3137263,19.9328195 C35.0625376,14.1862829 39.5342907,11.5105756 43.3900578,11.5105756 C45.3639062,11.5105756 47.1439414,12.2592585 48.6798074,13.736722 C49.9211478,14.8764293 51.3217545,16.3732098 51.3369785,16.3890146 C51.992781,17.044039 51.992781,18.0953561 51.3486892,18.7427707 M49.6037862,41.6428683 C48.3618603,44.5129171 45.9266081,47.7423805 42.1487175,51.5156488 C36.4045905,57.2580878 31.9322519,59.9332098 28.0770702,59.9332098 C26.1032219,59.9332098 24.3226011,59.1851122 22.7861496,57.7117463 C21.5412959,56.5714537 20.144788,55.0746732 20.129564,55.060039 C19.4737616,54.4003317 19.4737616,53.3496 20.1178533,52.7062829 L24.6598709,48.1615024 C24.9543965,47.8670634 25.3812536,47.6996488 25.8309467,47.6996488 C26.2806399,47.6996488 26.707497,47.8705756 27.0026081,48.1615024 L29.0227139,50.1816 C29.4964141,50.6545756 30.1750526,50.9261854 30.8812113,50.9261854 C31.5867845,50.9261854 32.2654229,50.6545756 32.7391231,50.1816 L40.8148621,42.1088195 C41.8424811,41.0809171 41.8424811,39.4178927 40.8183753,38.3935024 L38.7970984,36.3734049 C38.4832501,36.063161 38.312273,35.6481366 38.312273,35.2026732 C38.312273,34.7601366 38.4832501,34.3456976 38.7970984,34.0319415 L43.339116,29.487161 C43.6348127,29.1962341 44.0610843,29.0258927 44.5101919,29.0258927 C44.9610561,29.0258927 45.3914265,29.1962341 45.6818533,29.487161 C45.7169855,29.5181854 47.4390526,31.108039 48.4520332,32.1663805 C50.8913841,34.7021854 51.2672995,37.7999415 49.6037862,41.6428683 M35.733564,-5.85365854e-05 C15.998594,-5.85365854e-05 -5.85537919e-05,15.992722 -5.85537919e-05,35.7218927 C-5.85537919e-05,55.4510634 15.998594,71.4444293 35.733564,71.4444293 C55.4679485,71.4444293 71.4660155,55.4510634 71.4660155,35.7218927 C71.4660155,15.992722 55.4679485,-5.85365854e-05 35.733564,-5.85365854e-05" id="Fill-15" fill="#1ED75F" mask="url(#mask-4)"></path>
        </g>
    </g>
</svg>